<svg xmlns="http://www.w3.org/2000/svg" version="1.1" xmlns:xlink="http://www.w3.org/1999/xlink" xmlns:svgjs="http://svgjs.com/svgjs" width="1366" height="499" preserveAspectRatio="none" viewBox="0 0 1366 499"><g mask="url(&quot;#SvgjsMask1918&quot;)" fill="none"><rect width="1366" height="499" x="0" y="0" fill="url(#SvgjsLinearGradient1919)"></rect><g mask="url(&quot;#SvgjsMask1921&quot;)"><path d="M135 255L165 285M75 255L105 285L135 285M345 255L375 285M405 225L435 225L465 225L495 225L525 225M-15 255L15 255L45 255L75 255L105 255L135 255L165 255L195 255L225 255L255 255L285 255L315 255L345 255L375 255L405 225L435 195" stroke="url(#SvgjsLinearGradient1920)" stroke-width="5"></path><path d="M427.5 195 a7.5 7.5 0 1 0 15 0 a7.5 7.5 0 1 0 -15 0zM157.5 285 a7.5 7.5 0 1 0 15 0 a7.5 7.5 0 1 0 -15 0zM127.5 285 a7.5 7.5 0 1 0 15 0 a7.5 7.5 0 1 0 -15 0zM367.5 285 a7.5 7.5 0 1 0 15 0 a7.5 7.5 0 1 0 -15 0zM517.5 225 a7.5 7.5 0 1 0 15 0 a7.5 7.5 0 1 0 -15 0z" fill="url(#SvgjsLinearGradient1920)"></path><path d="M45 225L75 195L105 195L135 195L165 195M195 225L225 195M255 225L285 225M-15 225L15 225L45 225L75 225L105 225L135 225L165 225L195 225L225 225L255 225L285 195L315 195" stroke="url(#SvgjsLinearGradient1920)" stroke-width="5"></path><path d="M307.5 195 a7.5 7.5 0 1 0 15 0 a7.5 7.5 0 1 0 -15 0zM157.5 195 a7.5 7.5 0 1 0 15 0 a7.5 7.5 0 1 0 -15 0zM217.5 195 a7.5 7.5 0 1 0 15 0 a7.5 7.5 0 1 0 -15 0zM277.5 225 a7.5 7.5 0 1 0 15 0 a7.5 7.5 0 1 0 -15 0z" fill="url(#SvgjsLinearGradient1920)"></path><path d="M-15 285L15 285L45 285" stroke="url(#SvgjsLinearGradient1920)" stroke-width="5"></path><path d="M37.5 285 a7.5 7.5 0 1 0 15 0 a7.5 7.5 0 1 0 -15 0z" fill="url(#SvgjsLinearGradient1920)"></path><path d="M225 165L255 165L285 165L315 165M15 195L45 195M135 165L165 135L195 135L225 135L255 135M-15 195L15 195L45 165L75 165L105 165L135 165L165 165L195 165L225 165L255 195" stroke="url(#SvgjsLinearGradient1920)" stroke-width="5"></path><path d="M247.5 195 a7.5 7.5 0 1 0 15 0 a7.5 7.5 0 1 0 -15 0zM307.5 165 a7.5 7.5 0 1 0 15 0 a7.5 7.5 0 1 0 -15 0zM37.5 195 a7.5 7.5 0 1 0 15 0 a7.5 7.5 0 1 0 -15 0zM247.5 135 a7.5 7.5 0 1 0 15 0 a7.5 7.5 0 1 0 -15 0z" fill="url(#SvgjsLinearGradient1920)"></path><path d="M-15 315L15 315L45 315L75 315L105 315L135 315" stroke="url(#SvgjsLinearGradient1920)" stroke-width="5"></path><path d="M127.5 315 a7.5 7.5 0 1 0 15 0 a7.5 7.5 0 1 0 -15 0z" fill="url(#SvgjsLinearGradient1920)"></path><path d="M375 105L405 135L435 135L465 135L495 135L525 135L555 135L585 165L615 165M285 105L315 135M105 105L135 135M645 135L675 165M45 135L75 135M345 105L375 135L405 165L435 165L465 165L495 165M-15 165L15 165L45 135L75 105L105 105L135 105L165 105L195 105L225 105L255 105L285 105L315 105L345 105L375 105L405 105L435 105L465 105L495 105L525 105L555 105L585 135L615 135L645 135L675 135" stroke="url(#SvgjsLinearGradient1920)" stroke-width="5"></path><path d="M667.5 135 a7.5 7.5 0 1 0 15 0 a7.5 7.5 0 1 0 -15 0zM607.5 165 a7.5 7.5 0 1 0 15 0 a7.5 7.5 0 1 0 -15 0zM307.5 135 a7.5 7.5 0 1 0 15 0 a7.5 7.5 0 1 0 -15 0zM127.5 135 a7.5 7.5 0 1 0 15 0 a7.5 7.5 0 1 0 -15 0zM667.5 165 a7.5 7.5 0 1 0 15 0 a7.5 7.5 0 1 0 -15 0zM67.5 135 a7.5 7.5 0 1 0 15 0 a7.5 7.5 0 1 0 -15 0zM487.5 165 a7.5 7.5 0 1 0 15 0 a7.5 7.5 0 1 0 -15 0z" fill="url(#SvgjsLinearGradient1920)"></path><path d="M45 345L75 375M135 345L165 375L195 375M105 345L135 375L165 405L195 405L225 405M-15 345L15 345L45 345L75 345L105 345L135 345L165 345L195 345L225 345L255 375L285 375L315 375L345 375" stroke="url(#SvgjsLinearGradient1920)" stroke-width="5"></path><path d="M337.5 375 a7.5 7.5 0 1 0 15 0 a7.5 7.5 0 1 0 -15 0zM67.5 375 a7.5 7.5 0 1 0 15 0 a7.5 7.5 0 1 0 -15 0zM187.5 375 a7.5 7.5 0 1 0 15 0 a7.5 7.5 0 1 0 -15 0zM217.5 405 a7.5 7.5 0 1 0 15 0 a7.5 7.5 0 1 0 -15 0z" fill="url(#SvgjsLinearGradient1920)"></path><path d="M555 75L585 75L615 75M-15 135L15 135L45 105L75 75L105 75L135 75L165 75L195 75L225 75L255 75L285 75L315 75L345 75L375 75L405 75L435 75L465 75L495 75L525 75L555 75L585 105L615 105L645 105" stroke="url(#SvgjsLinearGradient1920)" stroke-width="5"></path><path d="M637.5 105 a7.5 7.5 0 1 0 15 0 a7.5 7.5 0 1 0 -15 0zM607.5 75 a7.5 7.5 0 1 0 15 0 a7.5 7.5 0 1 0 -15 0z" fill="url(#SvgjsLinearGradient1920)"></path></g></g><defs><mask id="SvgjsMask1918"><rect width="1366" height="499" fill="#ffffff"></rect></mask><linearGradient x1="15.87%" y1="-43.44%" x2="84.13%" y2="143.44%" gradientUnits="userSpaceOnUse" id="SvgjsLinearGradient1919"><stop stop-color="rgba(50, 43, 43, 1)" offset="0"></stop><stop stop-color="rgba(13, 13, 13, 1)" offset="1"></stop></linearGradient><linearGradient x1="737.64" y1="249.5" x2="0" y2="249.5" gradientUnits="userSpaceOnUse" id="SvgjsLinearGradient1920"><stop stop-color="#3a7cc3" offset="0"></stop><stop stop-color="rgba(255, 0, 0, 1)" offset="1"></stop></linearGradient><mask id="SvgjsMask1921"><rect width="1366" height="499" fill="white"></rect><path d="M431.25 195 a3.75 3.75 0 1 0 7.5 0 a3.75 3.75 0 1 0 -7.5 0zM161.25 285 a3.75 3.75 0 1 0 7.5 0 a3.75 3.75 0 1 0 -7.5 0zM131.25 285 a3.75 3.75 0 1 0 7.5 0 a3.75 3.75 0 1 0 -7.5 0zM371.25 285 a3.75 3.75 0 1 0 7.5 0 a3.75 3.75 0 1 0 -7.5 0zM521.25 225 a3.75 3.75 0 1 0 7.5 0 a3.75 3.75 0 1 0 -7.5 0z" fill="black"></path><path d="M311.25 195 a3.75 3.75 0 1 0 7.5 0 a3.75 3.75 0 1 0 -7.5 0zM161.25 195 a3.75 3.75 0 1 0 7.5 0 a3.75 3.75 0 1 0 -7.5 0zM221.25 195 a3.75 3.75 0 1 0 7.5 0 a3.75 3.75 0 1 0 -7.5 0zM281.25 225 a3.75 3.75 0 1 0 7.5 0 a3.75 3.75 0 1 0 -7.5 0z" fill="black"></path><path d="M41.25 285 a3.75 3.75 0 1 0 7.5 0 a3.75 3.75 0 1 0 -7.5 0z" fill="black"></path><path d="M251.25 195 a3.75 3.75 0 1 0 7.5 0 a3.75 3.75 0 1 0 -7.5 0zM311.25 165 a3.75 3.75 0 1 0 7.5 0 a3.75 3.75 0 1 0 -7.5 0zM41.25 195 a3.75 3.75 0 1 0 7.5 0 a3.75 3.75 0 1 0 -7.5 0zM251.25 135 a3.75 3.75 0 1 0 7.5 0 a3.75 3.75 0 1 0 -7.5 0z" fill="black"></path><path d="M131.25 315 a3.75 3.75 0 1 0 7.5 0 a3.75 3.75 0 1 0 -7.5 0z" fill="black"></path><path d="M671.25 135 a3.75 3.75 0 1 0 7.5 0 a3.75 3.75 0 1 0 -7.5 0zM611.25 165 a3.75 3.75 0 1 0 7.5 0 a3.75 3.75 0 1 0 -7.5 0zM311.25 135 a3.75 3.75 0 1 0 7.5 0 a3.75 3.75 0 1 0 -7.5 0zM131.25 135 a3.75 3.75 0 1 0 7.5 0 a3.75 3.75 0 1 0 -7.5 0zM671.25 165 a3.75 3.75 0 1 0 7.5 0 a3.75 3.75 0 1 0 -7.5 0zM71.25 135 a3.75 3.75 0 1 0 7.5 0 a3.75 3.75 0 1 0 -7.5 0zM491.25 165 a3.75 3.75 0 1 0 7.5 0 a3.75 3.75 0 1 0 -7.5 0z" fill="black"></path><path d="M341.25 375 a3.75 3.75 0 1 0 7.5 0 a3.75 3.75 0 1 0 -7.5 0zM71.25 375 a3.75 3.75 0 1 0 7.5 0 a3.75 3.75 0 1 0 -7.5 0zM191.25 375 a3.75 3.75 0 1 0 7.5 0 a3.75 3.75 0 1 0 -7.5 0zM221.25 405 a3.75 3.75 0 1 0 7.5 0 a3.75 3.75 0 1 0 -7.5 0z" fill="black"></path><path d="M641.25 105 a3.75 3.75 0 1 0 7.5 0 a3.75 3.75 0 1 0 -7.5 0zM611.25 75 a3.75 3.75 0 1 0 7.5 0 a3.75 3.75 0 1 0 -7.5 0z" fill="black"></path></mask></defs></svg>